# xmcd
#
# Track frame offsets:
#	150
#	21477
#	48947
#	73092
#	102274
#	123782
#	152296
#	179247
#	197813
#	215239
#	248624
#	269840
#	323251
#
# Disc length: 4653 seconds
#
# Revision: 4
# Processed by: cddbd v1.5PL3 Copyright (c) Steve Scherf et al.
# Submitted via: CDex 1.50Beta5
#
DISCID=bd122b0d
DTITLE=Garden Party DJ´s - Garden Party
DYEAR=1900
DGENRE=
TTITLE0=Robin Jones - Royal Marcha (Raj Gupta Remix
TTITLE1=Greyboy Featuring Karl Denson - Unwind Your Mind
TTITLE2=Block 16 - And Voodo
TTITLE3=Gak Sato - Circadian Rhythm
TTITLE4=Soulstance - Kikcin´Samba
TTITLE5=Maceo Parker - Keep Your Soul Together
TTITLE6=Papo V?zquez - Baila Plena
TTITLE7=Yada Yada - Kikcin In´
TTITLE8=Quannum - I´ve Changed My Mind
TTITLE9=Frank De Jojo - Turn Off The Lights
TTITLE10=Open Foraina -Open One
TTITLE11=Wagon Cookin´- Mar
TTITLE12=Sidonie - Goes To London (Le Hammond Inferno Remix)
EXTD=
EXTT0=
EXTT1=
EXTT2=
EXTT3=
EXTT4=
EXTT5=
EXTT6=
EXTT7=
EXTT8=
EXTT9=
EXTT10=
EXTT11=
EXTT12=
PLAYORDER=
